<svg width="35" height="35" viewBox="0 0 35 35" fill="none" xmlns="http://www.w3.org/2000/svg">
<circle cx="17.5" cy="17.5" r="17.5" fill="#AD9E80"/>
<path d="M8.90479 27.8094V25.0856" stroke="white" stroke-width="1.5" stroke-miterlimit="10"/>
<path d="M28 20.5427H8V25.0856H28V20.5427Z" stroke="white" stroke-width="1.5" stroke-miterlimit="10"/>
<path d="M12.781 15.9523H23.2572C24.2852 15.9523 25.2711 16.3607 25.998 17.0876C26.725 17.8145 27.1334 18.8004 27.1334 19.8285V20.4951H8.90479V19.8285C8.90479 18.8004 9.31317 17.8145 10.0401 17.0876C10.767 16.3607 11.7529 15.9523 12.781 15.9523Z" stroke="white" stroke-width="1.5" stroke-miterlimit="10"/>
<path d="M13.4571 12.362H15.2762C15.6339 12.362 15.9881 12.4324 16.3186 12.5693C16.649 12.7062 16.9493 12.9068 17.2022 13.1597C17.4552 13.4127 17.6558 13.7129 17.7927 14.0434C17.9296 14.3739 18 14.7281 18 15.0858V16.0381H10.7238V15.0858C10.7238 14.7273 10.7946 14.3723 10.9321 14.0412C11.0695 13.7101 11.271 13.4094 11.525 13.1564C11.7789 12.9033 12.0803 12.7029 12.4119 12.5666C12.7434 12.4302 13.0987 12.3607 13.4571 12.362Z" stroke="white" stroke-width="1.5" stroke-miterlimit="10"/>
<path d="M20.7238 12.3619H22.5429C23.2653 12.3619 23.9581 12.6489 24.4689 13.1597C24.9797 13.6705 25.2667 14.3633 25.2667 15.0857V16.0381H18V15.0857C18 14.3633 18.287 13.6705 18.7978 13.1597C19.3086 12.6489 20.0014 12.3619 20.7238 12.3619Z" stroke="white" stroke-width="1.5" stroke-miterlimit="10"/>
<path d="M25.2667 8.72375H10.7238V15.9999H25.2667V8.72375Z" stroke="white" stroke-width="1.5" stroke-miterlimit="10"/>
<path d="M27.0952 27.8094V25.0856" stroke="white" stroke-width="1.5" stroke-miterlimit="10"/>
<path d="M10.7238 6V8.72381" stroke="white" stroke-width="1.5" stroke-miterlimit="10"/>
<path d="M25.2762 6V8.72381" stroke="white" stroke-width="1.5" stroke-miterlimit="10"/>
</svg>
