<svg width="19" height="19" viewBox="0 0 19 19" fill="none" xmlns="http://www.w3.org/2000/svg">
<path d="M18.9535 4.09553C18.8745 3.69646 18.6964 3.31928 18.4367 3.00218C18.3839 2.9356 18.3287 2.87638 18.2684 2.8163C17.8062 2.35169 17.1633 2.08521 16.5045 2.08521H2.49538C1.82923 2.08521 1.20271 2.34497 0.73124 2.81656C0.671568 2.87608 0.616238 2.9359 0.561465 3.00459C0.302813 3.32035 0.125541 3.69701 0.0484648 4.09664C0.0162539 4.25358 0 4.41619 0 4.5807V14.4198C0 14.7621 0.069543 15.0954 0.207404 15.4123C0.326711 15.6937 0.50773 15.9604 0.731092 16.1837C0.78735 16.2397 0.843236 16.2913 0.902908 16.3417C1.34948 16.7115 1.91496 16.915 2.49538 16.915H16.5045C17.0887 16.915 17.6536 16.7108 18.099 16.3376C18.1585 16.2894 18.2137 16.2389 18.2689 16.1837C18.4848 15.968 18.6564 15.7202 18.7798 15.4469L18.796 15.408C18.9313 15.0971 19 14.7648 19 14.4198V4.5807C19 4.41835 18.9843 4.25466 18.9535 4.09553ZM1.29226 3.67779C1.32755 3.62613 1.3726 3.57311 1.43008 3.51518C1.71542 3.22999 2.09382 3.07306 2.49535 3.07306H16.5045C16.9096 3.07306 17.2881 3.23025 17.5702 3.51573C17.619 3.56498 17.6655 3.61964 17.7061 3.67427L17.8132 3.81825L10.3357 10.3352C10.1052 10.5373 9.80838 10.6486 9.49989 10.6486C9.19444 10.6486 8.8979 10.5376 8.66463 10.3355L1.19455 3.82011L1.29226 3.67779ZM0.992861 14.5066C0.988816 14.4798 0.987889 14.4501 0.987889 14.4198V4.78443L6.79068 9.84656L1.04645 14.8549L0.992861 14.5066ZM17.2521 15.7285C17.0275 15.8581 16.7689 15.9269 16.5045 15.9269H2.49538C2.2309 15.9269 1.97236 15.8581 1.74793 15.7285L1.5131 15.5924L7.44822 10.4202L8.09868 10.9859C8.48884 11.3247 8.98641 11.5114 9.49996 11.5114C10.0154 11.5114 10.5138 11.3247 10.9037 10.9859L11.5539 10.4199L17.487 15.5927L17.2521 15.7285ZM18.0119 14.4198C18.0119 14.4496 18.0113 14.479 18.0075 14.5053L17.9561 14.8568L12.2094 9.84927L18.0119 4.78688V14.4198Z" fill="#AD9E80"/>
</svg>
