<svg width="25" height="25" viewBox="0 0 25 25" fill="none" xmlns="http://www.w3.org/2000/svg">
<path d="M12.5013 0.464844C5.85547 0.464844 0.417969 5.89026 0.417969 12.5724C0.417969 18.614 4.84047 23.6286 10.6163 24.5349V16.0765H7.54714V12.5724H10.6163V9.90193C10.6163 6.86901 12.4167 5.20151 15.1838 5.20151C16.5009 5.20151 17.8784 5.43109 17.8784 5.43109V8.41568H16.3559C14.8576 8.41568 14.3863 9.34609 14.3863 10.3007V12.5724H17.7455L17.2017 16.0765H14.3863V24.5349C17.2336 24.0851 19.8265 22.6323 21.6966 20.4386C23.5667 18.245 24.5912 15.455 24.5846 12.5724C24.5846 5.89026 19.1471 0.464844 12.5013 0.464844Z" fill="#AD9E80"/>
</svg>
