<svg width="25" height="25" viewBox="0 0 25 25" fill="none" xmlns="http://www.w3.org/2000/svg">
<path d="M13.3464 0.0253906C19.6895 0.0253906 24.8792 5.21515 24.8792 11.5582V13.3601C24.8792 19.7031 19.6894 24.8929 13.3464 24.8929H11.5445C5.20148 24.8929 0.0117188 19.7031 0.0117188 13.3601V11.5582C0.0117188 5.21515 5.20148 0.0253906 11.5445 0.0253906H13.3464ZM12.6722 6.2756L12.5117 6.27539C11.1756 6.27539 9.83947 6.31955 9.83947 6.31955C7.88793 6.31955 6.30588 7.9016 6.30588 9.85314C6.30588 9.85314 6.26532 11.0004 6.26194 12.2319L6.26172 12.3929C6.26172 13.7717 6.30588 15.1976 6.30588 15.1976C6.30588 17.1492 7.88793 18.7312 9.83947 18.7312C9.83947 18.7312 11.0887 18.7754 12.3792 18.7754C13.758 18.7754 15.2282 18.7312 15.2282 18.7312C17.1797 18.7312 18.7176 17.1934 18.7176 15.2418C18.7176 15.2418 18.7617 13.8319 18.7617 12.4812L18.7609 12.1643C18.7549 10.9524 18.7175 9.80895 18.7175 9.80895C18.7175 7.85741 17.1797 6.31955 15.2281 6.31955C15.2281 6.31955 13.9561 6.27885 12.6722 6.2756ZM12.5117 7.40036C13.6074 7.40036 15.0122 7.43659 15.0122 7.43659C16.6124 7.43659 17.6005 8.42464 17.6005 10.0249C17.6005 10.0249 17.6367 11.4057 17.6367 12.4891C17.6367 13.5967 17.6005 15.0258 17.6005 15.0258C17.6005 16.6261 16.6124 17.6141 15.0122 17.6141C15.0122 17.6141 13.7698 17.6446 12.6919 17.6496L12.4031 17.6503C11.3448 17.6503 10.0554 17.6141 10.0554 17.6141C8.45519 17.6141 7.42295 16.5818 7.42295 14.9816C7.42295 14.9816 7.38672 13.5473 7.38672 12.4167C7.38672 11.3585 7.42295 10.0249 7.42295 10.0249C7.42295 8.42464 8.45522 7.43659 10.0554 7.43659C10.0554 7.43659 11.4161 7.40036 12.5117 7.40036ZM12.5117 9.32376C10.7435 9.32376 9.31009 10.7572 9.31009 12.5253C9.31009 14.2935 10.7435 15.7269 12.5117 15.7269C14.2799 15.7269 15.7133 14.2935 15.7133 12.5253C15.7133 10.7572 14.2799 9.32376 12.5117 9.32376ZM12.5117 10.442C13.6623 10.442 14.595 11.3747 14.595 12.5253C14.595 13.676 13.6623 14.6087 12.5117 14.6087C11.3611 14.6087 10.4283 13.676 10.4283 12.5253C10.4283 11.3747 11.3611 10.442 12.5117 10.442ZM15.8665 8.4353C15.4393 8.4353 15.0929 8.78337 15.0929 9.21272C15.0929 9.64207 15.4393 9.99011 15.8665 9.99011C16.2937 9.99011 16.64 9.64207 16.64 9.21272C16.64 8.78334 16.2937 8.4353 15.8665 8.4353Z" fill="#AD9E80"/>
</svg>
