<svg width="25" height="25" viewBox="0 0 25 25" fill="none" xmlns="http://www.w3.org/2000/svg">
<path d="M17.3224 14.4696L17.7969 13.9979L16.6951 12.8898L16.2207 13.3616L17.3224 14.4696ZM19.3902 13.8003L21.3803 14.8821L22.1266 13.5094L20.1365 12.4276L19.3902 13.8003ZM21.7634 17.0323L20.2837 18.5037L21.3853 19.6117L22.8651 18.1404L21.7634 17.0323ZM19.382 18.9775C17.8717 19.1182 13.9642 18.9928 9.73353 14.7861L8.63182 15.8941C13.2485 20.4846 17.6426 20.7088 19.527 20.5332L19.382 18.9775ZM9.73353 14.7861C5.70084 10.7763 5.03283 7.40376 4.94968 5.94063L3.3897 6.02929C3.49434 7.87078 4.3215 11.6083 8.63182 15.8941L9.73353 14.7861ZM11.1662 8.3483L11.4649 8.05122L10.3632 6.94324L10.0645 7.2403L11.1662 8.3483ZM11.7027 4.26455L10.3892 2.50996L9.1384 3.44636L10.4519 5.20095L11.7027 4.26455ZM5.9715 2.12807L4.3365 3.75379L5.43821 4.86179L7.07321 3.23607L5.9715 2.12807ZM10.6153 7.7943C10.0645 7.2403 10.0637 7.24104 10.063 7.24179C10.0627 7.24204 10.062 7.2428 10.0615 7.24331C10.0604 7.24434 10.0594 7.24538 10.0584 7.24645C10.0562 7.24861 10.0541 7.25085 10.0518 7.25318C10.0473 7.25786 10.0425 7.26292 10.0375 7.26838C10.0274 7.27929 10.0164 7.29177 10.0046 7.30586C9.98099 7.33404 9.95423 7.36874 9.9261 7.41025C9.86972 7.49346 9.80828 7.6035 9.75614 7.74187C9.64976 8.02421 9.59273 8.39641 9.66423 8.8573C9.80406 9.75863 10.4248 10.9492 12.0149 12.5303L13.1166 11.4222C11.6286 9.94265 11.2741 9.04224 11.2082 8.61776C11.1769 8.41575 11.2094 8.31632 11.2183 8.29278C11.2238 8.27821 11.2264 8.27672 11.2197 8.28667C11.2164 8.29154 11.2108 8.29915 11.2022 8.30941C11.1979 8.31455 11.1928 8.32036 11.1869 8.32684C11.1839 8.33008 11.1807 8.33349 11.1772 8.33706C11.1755 8.33885 11.1738 8.34067 11.1719 8.34255C11.1709 8.34349 11.17 8.34443 11.1691 8.34539C11.1687 8.34587 11.1679 8.3466 11.1676 8.34684C11.1669 8.34757 11.1662 8.3483 10.6153 7.7943ZM12.0149 12.5303C13.6055 14.1118 14.8017 14.7273 15.7045 14.8659C16.1658 14.9366 16.5378 14.8802 16.82 14.7751C16.9583 14.7235 17.0685 14.6628 17.1519 14.6069C17.1935 14.579 17.2283 14.5525 17.2566 14.529C17.2707 14.5173 17.2832 14.5064 17.2942 14.4964C17.2997 14.4914 17.3048 14.4867 17.3095 14.4822C17.3119 14.48 17.3141 14.4778 17.3163 14.4757C17.3173 14.4746 17.3183 14.4736 17.3194 14.4726C17.3199 14.472 17.3207 14.4713 17.3209 14.4711C17.3217 14.4704 17.3224 14.4696 16.7716 13.9156C16.2207 13.3616 16.2215 13.3609 16.2222 13.3602C16.2224 13.36 16.2231 13.3592 16.2237 13.3587C16.2246 13.3578 16.2255 13.3568 16.2265 13.3559C16.2284 13.3541 16.2302 13.3523 16.232 13.3506C16.2356 13.3471 16.2391 13.344 16.2423 13.341C16.2488 13.3352 16.2546 13.3301 16.2598 13.3259C16.27 13.3173 16.2776 13.3119 16.2823 13.3087C16.292 13.3022 16.29 13.3052 16.2746 13.3109C16.2491 13.3204 16.1469 13.353 15.9415 13.3214C15.5109 13.2555 14.6042 12.9013 13.1166 11.4222L12.0149 12.5303ZM10.3892 2.50996C9.32745 1.09164 7.23955 0.867215 5.9715 2.12807L7.07321 3.23607C7.62704 2.68537 8.61066 2.74142 9.1384 3.44636L10.3892 2.50996ZM4.94968 5.94063C4.92919 5.5801 5.09454 5.2035 5.43821 4.86179L4.3365 3.75379C3.77679 4.31032 3.33677 5.09813 3.3897 6.02929L4.94968 5.94063ZM20.2837 18.5037C19.9974 18.7884 19.6905 18.9487 19.382 18.9775L19.527 20.5332C20.2922 20.4618 20.9192 20.0753 21.3853 19.6117L20.2837 18.5037ZM11.4649 8.05122C12.4904 7.03152 12.5667 5.4186 11.7027 4.26455L10.4519 5.20095C10.8722 5.76239 10.8097 6.49931 10.3632 6.94324L11.4649 8.05122ZM21.3803 14.8821C22.2322 15.3453 22.3649 16.4342 21.7634 17.0323L22.8651 18.1404C24.2613 16.7521 23.8307 14.4358 22.1266 13.5094L21.3803 14.8821ZM17.7969 13.9979C18.1969 13.6002 18.8407 13.5016 19.3902 13.8003L20.1365 12.4276C19.0077 11.8139 17.6069 11.9834 16.6951 12.8898L17.7969 13.9979Z" fill="white"/>
</svg>
