<svg width="20" height="20" viewBox="0 0 20 20" fill="none" xmlns="http://www.w3.org/2000/svg">
<path fill-rule="evenodd" clip-rule="evenodd" d="M0 0.875C0 0.391755 0.391755 0 0.875 0H1.76288C3.38733 0 4.94525 0.645313 6.0939 1.79397L8.52749 4.22755L14.806 1.78587C15.7762 1.4086 16.8776 1.6402 17.6137 2.37623L18.9937 3.75628C19.1873 3.94985 19.2791 4.22286 19.2419 4.49407C19.2046 4.76528 19.0425 5.00342 18.804 5.13763L12.7429 8.547L14.7836 10.8792L16.7638 10.5963C17.4219 10.5023 18.0861 10.7236 18.5562 11.1938C19.3812 12.0187 19.3812 13.3563 18.5562 14.1812L14.1812 18.5562C13.3563 19.3812 12.0187 19.3812 11.1938 18.5562C10.7236 18.0861 10.5023 17.4219 10.5963 16.7638L10.8792 14.7836L8.547 12.7429L5.13762 18.804C5.00342 19.0425 4.76528 19.2046 4.49407 19.2419C4.22286 19.2791 3.94985 19.1873 3.75628 18.9937L2.37624 17.6137C1.6402 16.8776 1.4086 15.7762 1.78587 14.8061L4.22755 8.52749L1.79397 6.09391C0.645313 4.94525 0 3.38733 0 1.76288V0.875ZM1.75 1.75V1.76288C1.75 2.9232 2.21093 4.036 3.03141 4.85647L5.86872 7.69378C6.11406 7.93914 6.19126 8.30629 6.0655 8.6296L3.41688 15.4403C3.29113 15.7637 3.36832 16.1309 3.61367 16.3762L4.17797 16.9405L7.54988 10.9461C7.67907 10.7164 7.90492 10.5571 8.16463 10.5126C8.42441 10.4681 8.69032 10.543 8.88869 10.7166L12.3887 13.779C12.6115 13.9739 12.7206 14.2682 12.6787 14.5612L12.3287 17.0112C12.3126 17.1242 12.3505 17.2381 12.4312 17.3188C12.5728 17.4604 12.8022 17.4604 12.9438 17.3188L17.3188 12.9438C17.4604 12.8022 17.4604 12.5728 17.3188 12.4312C17.2381 12.3505 17.1242 12.3126 17.0112 12.3287L14.5612 12.6787C14.2682 12.7206 13.9739 12.6115 13.779 12.3887L10.7165 8.88869C10.543 8.69032 10.4681 8.42441 10.5126 8.16463C10.5571 7.90492 10.7163 7.67907 10.946 7.54987L16.9405 4.17796L16.3762 3.61367C16.1309 3.36832 15.7637 3.29113 15.4403 3.41688L8.6296 6.0655C8.30629 6.19126 7.93914 6.11406 7.69378 5.86872L4.85647 3.0314C4.036 2.21093 2.9232 1.75 1.76288 1.75H1.75Z" fill="white"/>
</svg>
